<svg width="14" height="16" viewBox="0 0 14 16" fill="none" xmlns="http://www.w3.org/2000/svg">
<path d="M13.0928 5.45882C12.0277 6.11765 11.3699 7.24706 11.3699 8.50196C11.3699 9.91373 12.2157 11.2 13.5 11.7333C13.2494 12.549 12.8735 13.302 12.4036 13.9922C11.7145 14.9647 10.994 15.9686 9.92892 15.9686C8.86386 15.9686 8.5506 15.3412 7.29759 15.3412C6.0759 15.3412 5.63735 16 4.63494 16C3.63253 16 2.94337 15.0902 2.16024 13.9608C1.12651 12.3922 0.531325 10.5725 0.5 8.65882C0.5 5.55294 2.50482 3.8902 4.50964 3.8902C5.5747 3.8902 6.45181 4.58039 7.10964 4.58039C7.73614 4.58039 8.73855 3.85882 9.92892 3.85882C11.1819 3.82745 12.3723 4.42353 13.0928 5.45882ZM9.36506 2.54118C9.89759 1.91373 10.1795 1.12941 10.2108 0.313726C10.2108 0.219608 10.2108 0.0941177 10.1795 0C9.27108 0.0941177 8.4253 0.533333 7.83012 1.22353C7.29759 1.81961 6.98434 2.57255 6.95301 3.38824C6.95301 3.48235 6.95301 3.57647 6.98434 3.67059C7.04699 3.67059 7.14096 3.70196 7.20361 3.70196C8.0494 3.63922 8.83253 3.2 9.36506 2.54118Z" fill="#030912"/>
</svg>
