<svg width="17" height="16" viewBox="0 0 17 16" fill="none" xmlns="http://www.w3.org/2000/svg">
<path d="M16.5 8.00002C16.5 3.58173 12.9183 1.52588e-05 8.5 1.52588e-05C4.08172 1.52588e-05 0.5 3.58173 0.5 8.00002C0.5 11.993 3.42548 15.3027 7.25 15.9028V10.3125H5.21875V8.00002H7.25V6.23752C7.25 4.23252 8.44434 3.12502 10.2717 3.12502C11.147 3.12502 12.0625 3.28127 12.0625 3.28127V5.25002H11.0537C10.0599 5.25002 9.75 5.86669 9.75 6.49934V8.00002H11.9688L11.6141 10.3125H9.75V15.9028C13.5745 15.3027 16.5 11.993 16.5 8.00002Z" fill="#1877F2"/>
<path d="M11.6141 10.3125L11.9688 8H9.75V6.49933C9.75 5.86667 10.0599 5.25 11.0537 5.25H12.0625V3.28125C12.0625 3.28125 11.147 3.125 10.2717 3.125C8.44434 3.125 7.25 4.2325 7.25 6.2375V8H5.21875V10.3125H7.25V15.9028C7.6573 15.9667 8.07475 16 8.5 16C8.92525 16 9.3427 15.9667 9.75 15.9028V10.3125H11.6141Z" fill="#F5F5F5"/>
</svg>
