<svg width="16" height="16" viewBox="0 0 16 16" fill="none" xmlns="http://www.w3.org/2000/svg">
<g clip-path="url(#clip0_2776_653)">
<path d="M15.04 8.16663C15.04 7.64663 14.9933 7.14663 14.9067 6.66663H8V9.50663H11.9467C11.7733 10.42 11.2533 11.1933 10.4733 11.7133V13.56H12.8533C14.24 12.28 15.04 10.4 15.04 8.16663Z" fill="#4285F4"/>
<path d="M8.00011 15.3334C9.98011 15.3334 11.6401 14.68 12.8534 13.56L10.4734 11.7134C9.82011 12.1534 8.98678 12.42 8.00011 12.42C6.09345 12.42 4.47345 11.1334 3.89345 9.40002H1.45345V11.2934C2.66011 13.6867 5.13345 15.3334 8.00011 15.3334Z" fill="#34A853"/>
<path d="M3.89334 9.39338C3.74667 8.95338 3.66 8.48671 3.66 8.00005C3.66 7.51338 3.74667 7.04671 3.89334 6.60671V4.71338H1.45334C0.953338 5.70005 0.666672 6.81338 0.666672 8.00005C0.666672 9.18671 0.953338 10.3 1.45334 11.2867L3.35334 9.80671L3.89334 9.39338Z" fill="#FBBC05"/>
<path d="M8.00011 3.58663C9.08011 3.58663 10.0401 3.95996 10.8068 4.67996L12.9068 2.57996C11.6334 1.39329 9.98011 0.666626 8.00011 0.666626C5.13345 0.666626 2.66011 2.31329 1.45345 4.71329L3.89345 6.60663C4.47345 4.87329 6.09345 3.58663 8.00011 3.58663Z" fill="#EA4335"/>
</g>
<defs>
<clipPath id="clip0_2776_653">
<rect width="16" height="16" fill="white"/>
</clipPath>
</defs>
</svg>
